<svg width="20" height="20" viewBox="0 0 20 20" fill="none" xmlns="http://www.w3.org/2000/svg">
<path d="M10.7071 19.1921C10.5261 19.3731 10.2762 19.4849 9.99996 19.4849C9.44753 19.4849 9.00006 19.0375 9.00007 18.485V1.51447C9.00007 0.962041 9.44753 0.514577 9.99996 0.514584C10.5524 0.514591 10.9999 0.962049 10.9999 1.51448L10.9999 18.485C10.9999 18.7613 10.888 19.0112 10.7071 19.1921Z" fill="white"/>
<path d="M19.1923 10.7069C19.0114 10.8878 18.7615 10.9996 18.4852 10.9996L1.51468 10.9996C0.962244 10.9996 0.51478 10.5522 0.514787 9.99975C0.514794 9.44733 0.962251 8.99985 1.51468 8.99986L18.4852 8.99986C19.0377 8.99986 19.4851 9.44733 19.4851 9.99975C19.4851 10.276 19.3733 10.5259 19.1923 10.7069Z" fill="white"/>
</svg>
